<svg id="Capa_1" enable-background="new 0 0 511.657 511.657" height="512" viewBox="0 0 511.657 511.657" width="512" xmlns="http://www.w3.org/2000/svg"><g><g><path d="m389.021 138.849v16.374c0 10.025-8.127 18.152-18.152 18.152-10.025 0-18.152-8.127-18.152-18.152v-84.941h36.304z" fill="#ca2e43"/><g id="XMLID_172_"><g><path d="m230.698 28.867h-34.34l-21.122 26.275v47.241l21.122 17.074h34.34c4.82 0 8.74-3.91 8.74-8.74v-73.11c0-4.82-3.92-8.74-8.74-8.74z" fill="#efedef"/></g></g><g><g id="XMLID_168_"><g fill="#ffe5c2"><path d="m193.138 459.527v44.63h-114.189c-6.369 0-11.531-5.163-11.531-11.531v-124.849c0-21.72 12.14-40.61 30-50.25h65.72c17.86 9.64 30 28.53 30 50.25z"/><path d="m318.858 474.157v30h-125.72v-44.63-91.75-66.66c0-21.72 12.14-40.61 30-50.26h65.72c17.86 9.65 30 28.54 30 50.26v66.66z"/><path d="m444.578 367.777v124.849c0 6.369-5.163 11.531-11.531 11.531h-114.189v-30-106.38c0-21.72 12.14-40.61 30-50.25h65.72c17.86 9.64 30 28.53 30 50.25z"/></g></g></g><g><path d="m288.858 250.857h-2.86-62.86c-17.86 9.65-30 28.54-30 50.26v66.66 91.75 44.63h62.86v-44.63-44.406c0-13.402 8.216-25.261 20.556-30.489 18.966-8.036 32.304-26.839 32.304-48.7v-67.079c-5.131-7.471-11.987-13.666-20-17.996z" fill="#fed2a4"/><path d="m223.137 335.932v-134.4c0-18.148 14.712-32.86 32.86-32.86 18.148 0 32.86 14.712 32.86 32.86v134.4c0 18.148-14.712 32.86-32.86 32.86-18.148 0-32.86-14.712-32.86-32.86z" fill="#eb5569"/><path d="m163.138 317.527h-2.86-62.86c-17.86 9.64-30 28.53-30 50.25v124.849c0 6.369 5.163 11.531 11.531 11.531h62.86c-6.369 0-11.531-5.163-11.531-11.531v-20.95c0-8.532 5.81-15.847 14.036-18.115 22.356-6.164 38.823-26.679 38.823-50.969l.007-67.084c-5.131-7.467-11.994-13.656-20.006-17.981z" fill="#fed2a4"/><path d="m97.416 402.593v-134.4c0-18.148 14.712-32.86 32.86-32.86 18.148 0 32.86 14.712 32.86 32.86v134.4c0 18.148-14.712 32.86-32.86 32.86-18.148 0-32.86-14.712-32.86-32.86z" fill="#eb5569"/><path d="m414.578 317.527h-2.86-62.86c-17.86 9.64-30 28.53-30 50.25v106.38 30h62.86v-34.959c0-7.219 5.162-13.306 12.236-14.747 23.226-4.732 40.626-25.123 40.626-50.005v-68.928c-5.131-7.472-11.988-13.665-20.002-17.991z" fill="#fed2a4"/><path d="m414.579 402.593v-134.4c0-18.148-14.712-32.86-32.86-32.86-18.148 0-32.86 14.712-32.86 32.86v134.4c0 18.148 14.712 32.86 32.86 32.86 18.148 0 32.86-14.712 32.86-32.86z" fill="#eb5569"/><g fill="#e53950"><path d="m260.007 312.018v-134.4c0-2.956.397-5.819 1.129-8.544-1.675-.263-3.39-.403-5.138-.403-18.148 0-32.86 14.712-32.86 32.86v134.4c0 18.148 14.712 32.86 32.86 32.86 15.192 0 27.97-10.312 31.732-24.316-15.708-2.466-27.723-16.057-27.723-32.457z"/><path d="m134.286 378.679v-134.4c0-2.956.397-5.819 1.129-8.544-1.675-.263-3.39-.403-5.138-.403-18.148 0-32.86 14.712-32.86 32.86v134.4c0 18.148 14.712 32.86 32.86 32.86 15.192 0 27.97-10.312 31.732-24.316-15.708-2.466-27.723-16.057-27.723-32.457z"/><path d="m385.729 378.679v-134.4c0-2.956.397-5.819 1.129-8.544-1.675-.263-3.39-.403-5.138-.403-18.148 0-32.86 14.712-32.86 32.86v134.4c0 18.148 14.712 32.86 32.86 32.86 15.192 0 27.97-10.312 31.732-24.316-15.708-2.466-27.723-16.057-27.723-32.457z"/></g><path d="m478.381 74.166c0-37.862-31.564-68.351-69.813-66.592-34.152 1.571-61.872 29.291-63.443 63.443-1.76 38.249 28.73 69.812 66.592 69.812.666 0 1.33-.01 1.992-.03 4.374-.13 7.958 3.462 7.958 7.839v47.391c0 10.025 8.127 18.152 18.152 18.152 10.025 0 18.152-8.127 18.152-18.152v-70.67c0-1.997.763-3.917 2.136-5.366 11.32-11.946 18.274-28.07 18.274-45.827z" fill="#eb5569"/><path d="m443.176 166.854v-47.391c0-4.376-3.584-7.969-7.958-7.839-.661.02-1.325.03-1.992.03-37.862 0-68.351-31.563-66.592-69.812.326-7.079 1.79-13.874 4.186-20.224-14.887 11.629-24.776 29.407-25.696 49.4-1.76 38.249 28.73 69.812 66.592 69.812.666 0 1.33-.01 1.992-.03 4.374-.13 7.958 3.462 7.958 7.839v47.391c0 10.025 8.127 18.152 18.152 18.152s18.152-8.127 18.152-18.152v-11.347c-8.419-1.577-14.794-8.953-14.794-17.829z" fill="#e53950"/><path d="m385.421 87.967 51.132 5.184c4.26.432 7.96-2.912 7.96-7.194v-23.583c0-4.282-3.7-7.626-7.96-7.194l-51.132 5.184c-3.692.374-6.501 3.483-6.501 7.194v13.216c0 3.711 2.809 6.819 6.501 7.193z" fill="#ca2e43"/></g><path d="m196.384 28.867h-129.746c-18.43 0-33.36 14.94-33.36 33.36v23.88c0 18.42 14.93 33.35 33.36 33.35h129.746z" fill="#baafb9"/><path d="m228.502 78.371h-53.266v24.012l21.122 17.074h34.34c4.82 0 8.74-3.91 8.74-8.74v-32.346z" fill="#e5e1e5"/><path d="m98.782 78.371c-18.43 0-33.36-14.93-33.36-33.35v-16.123c-17.865.641-32.144 15.317-32.144 33.329v23.88c0 18.42 14.93 33.35 33.36 33.35h129.746v-41.086z" fill="#aa9ea9"/></g><g><path d="m422.08 313.233v-45.041c0-22.255-18.105-40.36-40.36-40.36s-40.36 18.105-40.36 40.36v45.041c-5.726 3.632-10.764 8.09-15.001 13.165v-25.277c0-22.239-11.387-42.742-30-54.549v-45.041c0-22.255-18.105-40.36-40.36-40.36s-40.36 18.105-40.36 40.36v45.041c-18.613 11.806-30 32.31-30 54.549v25.277c-4.237-5.076-9.275-9.533-15.001-13.165v-45.041c0-22.255-18.105-40.36-40.359-40.36-22.255 0-40.361 18.105-40.361 40.36v45.041c-18.613 11.806-30 32.31-30 54.549v136.375c0 4.142 3.357 7.5 7.5 7.5s7.5-3.358 7.5-7.5v-136.375c0-13.585 5.538-26.326 15-35.534v31.915c0 4.142 3.357 7.5 7.5 7.5s7.5-3.358 7.5-7.5v-95.971c0-13.984 11.377-25.36 25.361-25.36 13.983 0 25.359 11.376 25.359 25.36v134.4c0 13.984-11.376 25.36-25.359 25.36-13.984 0-25.361-11.376-25.361-25.36v-6.467c0-4.142-3.357-7.5-7.5-7.5s-7.5 3.358-7.5 7.5v6.467c0 22.255 18.106 40.36 40.361 40.36 22.254 0 40.359-18.105 40.359-40.36v-70.346c9.463 9.208 15.001 21.949 15.001 35.535v91.745 44.63c0 4.142 3.357 7.5 7.5 7.5s7.5-3.358 7.5-7.5v-44.63-91.745-66.661c0-13.585 5.538-26.326 15-35.534v70.344c0 22.255 18.105 40.36 40.36 40.36s40.36-18.105 40.36-40.36v-70.344c9.462 9.208 15 21.949 15 35.534v66.661 106.375 30c0 4.142 3.357 7.5 7.5 7.5s7.5-3.358 7.5-7.5v-30-106.374c0-13.586 5.538-26.327 15.001-35.535v70.345c0 22.255 18.105 40.36 40.36 40.36s40.36-18.105 40.36-40.36v-70.345c9.462 9.208 15 21.949 15 35.534v136.375c0 4.142 3.357 7.5 7.5 7.5s7.5-3.358 7.5-7.5v-136.374c0-22.239-11.387-42.742-30-54.549zm-166.082 48.059c-13.983 0-25.36-11.376-25.36-25.36v-134.4c0-13.984 11.377-25.36 25.36-25.36s25.36 11.376 25.36 25.36v134.4c0 13.984-11.377 25.36-25.36 25.36zm125.721 66.661c-13.983 0-25.36-11.376-25.36-25.36v-134.4c0-13.984 11.377-25.36 25.36-25.36s25.36 11.376 25.36 25.36v134.4c.001 13.984-11.376 25.36-25.36 25.36z"/><path d="m268.916 434.828c4.143 0 7.5-3.358 7.5-7.5s-3.357-7.5-7.5-7.5h-24.306c-4.143 0-7.5 3.358-7.5 7.5s3.357 7.5 7.5 7.5z"/><path d="m285.368 454.604h-57.21c-4.143 0-7.5 3.358-7.5 7.5s3.357 7.5 7.5 7.5h57.21c4.143 0 7.5-3.358 7.5-7.5s-3.358-7.5-7.5-7.5z"/><path d="m462.932 20.525c-14.791-14.126-34.218-21.387-54.709-20.443-36.497 1.679-66.626 30.583-70.285 66.584h-91.005v-29.055c0-8.955-7.285-16.24-16.239-16.24h-60.797c-4.143 0-7.5 3.358-7.5 7.5s3.357 7.5 7.5 7.5h18.961v75.589h-122.225c-14.257 0-25.856-11.599-25.856-25.856v-23.877c0-14.257 11.6-25.856 25.856-25.856h71.302c4.143 0 7.5-3.358 7.5-7.5s-3.357-7.5-7.5-7.5h-71.302c-22.528 0-40.856 18.328-40.856 40.856v23.877c0 22.528 18.328 40.856 40.856 40.856h164.061c8.954 0 16.239-7.285 16.239-16.24v-29.054h90.994c.885 8.927 3.353 17.514 7.294 25.441 0 .028-.004.055-.004.082v48.034c0 14.145 11.507 25.652 25.651 25.652s25.652-11.507 25.652-25.652v-8.438c4.938 1.019 10.021 1.544 15.195 1.544.742 0 1.481-.011 2.215-.033.021 0 .056 0 .116.059.055.053.119.145.119.283v47.391c0 14.145 11.507 25.652 25.651 25.652s25.652-11.507 25.652-25.652v-16.911c0-4.142-3.357-7.5-7.5-7.5s-7.5 3.358-7.5 7.5v16.911c0 5.874-4.778 10.652-10.652 10.652-5.873 0-10.651-4.778-10.651-10.652v-47.391c0-4.138-1.702-8.165-4.671-11.046-2.976-2.889-6.897-4.399-11.014-4.29-.587.018-1.176.026-1.766.026-16.319 0-31.517-6.502-42.792-18.308-8.868-9.285-14.326-20.871-15.89-33.356h18.428c.428 7.184 5.951 13.028 13.202 13.764l51.132 5.184c.494.05.987.075 1.48.075 3.63 0 7.166-1.347 9.882-3.801 3.085-2.788 4.854-6.771 4.854-10.929v-23.583c0-4.158-1.769-8.141-4.854-10.929s-7.225-4.144-11.363-3.727l-51.132 5.184c-7.251.736-12.775 6.58-13.202 13.764h-18.419c3.589-28.008 27.276-50.284 55.873-51.6 16.377-.747 31.861 5.04 43.659 16.307 11.807 11.275 18.309 26.473 18.309 42.793 0 15.19-5.76 29.633-16.219 40.669-2.703 2.853-4.191 6.59-4.191 10.525v21.797c0 4.142 3.357 7.5 7.5 7.5s7.5-3.358 7.5-7.5v-21.797c0-.08.028-.154.079-.208 13.11-13.834 20.331-31.942 20.331-50.987-.001-20.457-8.15-39.507-22.949-53.64zm-230.999 90.195c0 .684-.556 1.24-1.239 1.24h-26.836v-75.589h26.836c.684 0 1.239.556 1.239 1.24zm149.588 31.225v13.278c0 5.874-4.778 10.652-10.652 10.652-5.873 0-10.651-4.778-10.651-10.652v-27.709c6.311 6.107 13.505 10.954 21.303 14.431zm4.899-74.144 50.593-5.129v22.988l-50.593-5.13z"/></g></g></svg>